<svg id="Layer_1" data-name="Layer 1" xmlns="http://www.w3.org/2000/svg" viewBox="0 0 80 80"><defs><style>.cls-1{fill:none;stroke:#fff;stroke-width:3px;}.cls-2{fill:#fff;}</style></defs><path class="cls-1" d="M183,280.25a38.5,38.5,0,1,1-38.5-38.5A38.5,38.5,0,0,1,183,280.25Z" transform="translate(-104.5 -240.25)"/><path class="cls-2" d="M133.35,293.25a3.73,3.73,0,0,0,3.72,3.72h14.86a3.73,3.73,0,0,0,3.72-3.72V271h-22.3ZM137.92,280l2.62-2.62,4,3.94,3.94-3.94,2.62,2.62L147.12,284l3.94,3.94-2.62,2.62-3.94-3.94-3.94,3.94-2.62-2.62,3.94-3.94ZM151,265.37l-1.85-1.85h-9.3L138,265.37h-6.51v3.72h26v-3.72Z" transform="translate(-104.5 -240.25)"/></svg>